<svg width="1298" height="143" viewBox="0 0 1298 143" fill="none" xmlns="http://www.w3.org/2000/svg">
<path d="M41.5648 109.186L53.175 77.895L71.1567 32.162L111.368 142.318H141.951L85.4572 0.729368H56.7147L0.362591 142.318H29.813L37.8835 117.257L41.5648 109.186ZM157.592 142.318H252.881V115.133H187.467V0.729368H157.592V142.318ZM389.936 0.729368H358.504L323.106 63.7362L287.709 0.729368H256.277L307.39 91.2043V142.318H338.823V91.2043L389.936 0.729368ZM510.259 142.318H541.125V27.4896H582.185V0.729368H469.34V27.4896H510.259V142.318ZM638.752 109.186L650.362 77.895L668.344 32.162L708.555 142.318H739.138L682.644 0.729368H653.902L597.55 142.318H627L635.071 117.257L638.752 109.186ZM844.688 0.729368V56.5152H814.671V86.6735H844.688V142.318H874.705V0.729368H844.688ZM784.654 56.5152V35.1353V0.729368H754.638V142.318H784.654V112.301V86.6735V56.5152ZM960.765 142.318C1001.26 142.318 1030.14 113.434 1030.14 73.081C1030.14 29.755 1001.26 0.729368 960.765 0.729368C920.412 0.729368 891.528 29.755 891.528 73.081C891.528 113.434 920.412 142.318 960.765 142.318ZM960.765 116.407C937.686 116.407 920.412 98.9916 920.412 73.081C920.412 47.0287 937.686 26.7816 960.765 26.7816C983.985 26.7816 1001.26 47.0287 1001.26 73.081C1001.26 98.9916 983.985 116.407 960.765 116.407ZM1104.28 142.318C1139.68 142.318 1160.92 121.079 1160.92 78.6029V0.729368H1132.6V78.6029C1132.6 104.655 1120.85 114 1104.28 114C1085.45 114 1075.97 104.655 1075.97 78.6029V0.729368H1045.38V78.6029C1045.38 121.079 1066.62 142.318 1104.28 142.318ZM1266.35 0.729368V86.9566L1201.65 0.729368H1177.15V142.318H1207.88V56.232L1272.44 142.318H1297.08V0.729368H1266.35Z" fill="url(#paint0_linear_9_35)"/>
<defs>
<linearGradient id="paint0_linear_9_35" x1="-7" y1="99.9521" x2="412.305" y2="-547.746" gradientUnits="userSpaceOnUse">
<stop stop-color="#20BCE9"/>
<stop offset="0.534375" stop-color="#9885EC"/>
<stop offset="1" stop-color="#F35161"/>
</linearGradient>
</defs>
</svg>
